<mxfile host="Electron" agent="Mozilla/5.0 (Windows NT 10.0; Win64; x64) AppleWebKit/537.36 (KHTML, like Gecko) draw.io/26.2.2 Chrome/134.0.6998.178 Electron/35.1.2 Safari/537.36" version="26.2.2">
  <diagram name="Страница — 1" id="y0ER_Tr1oXZwHe2rYPF_">
    <mxGraphModel dx="225" dy="169" grid="1" gridSize="10" guides="1" tooltips="1" connect="1" arrows="1" fold="1" page="1" pageScale="1" pageWidth="827" pageHeight="1169" math="0" shadow="0">
      <root>
        <mxCell id="0" />
        <mxCell id="1" parent="0" />
        <mxCell id="PB9eRc3K2WVdu8bXLjVY-24" style="edgeStyle=orthogonalEdgeStyle;rounded=0;orthogonalLoop=1;jettySize=auto;html=1;exitX=0.25;exitY=1;exitDx=0;exitDy=0;entryX=0.5;entryY=0;entryDx=0;entryDy=0;endArrow=none;startFill=0;" parent="1" source="huuZUkolGfKJN9umVDMc-1" target="PB9eRc3K2WVdu8bXLjVY-16" edge="1">
          <mxGeometry relative="1" as="geometry" />
        </mxCell>
        <mxCell id="PB9eRc3K2WVdu8bXLjVY-202" style="edgeStyle=orthogonalEdgeStyle;rounded=0;orthogonalLoop=1;jettySize=auto;html=1;exitX=0;exitY=0.5;exitDx=0;exitDy=0;entryX=0.5;entryY=0;entryDx=0;entryDy=0;endArrow=none;startFill=0;" parent="1" source="huuZUkolGfKJN9umVDMc-1" target="PB9eRc3K2WVdu8bXLjVY-200" edge="1">
          <mxGeometry relative="1" as="geometry" />
        </mxCell>
        <mxCell id="huuZUkolGfKJN9umVDMc-1" value="Точка" style="rounded=0;whiteSpace=wrap;html=1;strokeWidth=3;" parent="1" vertex="1">
          <mxGeometry x="160" y="280" width="80" height="60" as="geometry" />
        </mxCell>
        <mxCell id="PB9eRc3K2WVdu8bXLjVY-12" style="edgeStyle=orthogonalEdgeStyle;rounded=0;orthogonalLoop=1;jettySize=auto;html=1;exitX=1;exitY=0.5;exitDx=0;exitDy=0;endArrow=none;startFill=0;" parent="1" source="huuZUkolGfKJN9umVDMc-6" edge="1">
          <mxGeometry relative="1" as="geometry">
            <mxPoint x="200" y="260.13043478260875" as="targetPoint" />
          </mxGeometry>
        </mxCell>
        <mxCell id="huuZUkolGfKJN9umVDMc-6" value="Id" style="ellipse;whiteSpace=wrap;html=1;" parent="1" vertex="1">
          <mxGeometry x="140" y="250" width="40" height="20" as="geometry" />
        </mxCell>
        <mxCell id="PB9eRc3K2WVdu8bXLjVY-9" style="edgeStyle=orthogonalEdgeStyle;rounded=0;orthogonalLoop=1;jettySize=auto;html=1;exitX=0;exitY=0.5;exitDx=0;exitDy=0;endArrow=none;startFill=0;" parent="1" source="PB9eRc3K2WVdu8bXLjVY-1" edge="1">
          <mxGeometry relative="1" as="geometry">
            <mxPoint x="200" y="200.13043478260875" as="targetPoint" />
          </mxGeometry>
        </mxCell>
        <mxCell id="PB9eRc3K2WVdu8bXLjVY-1" value="z" style="ellipse;whiteSpace=wrap;html=1;" parent="1" vertex="1">
          <mxGeometry x="220" y="190" width="40" height="20" as="geometry" />
        </mxCell>
        <mxCell id="PB9eRc3K2WVdu8bXLjVY-10" style="edgeStyle=orthogonalEdgeStyle;rounded=0;orthogonalLoop=1;jettySize=auto;html=1;exitX=0;exitY=0.5;exitDx=0;exitDy=0;endArrow=none;startFill=0;" parent="1" source="PB9eRc3K2WVdu8bXLjVY-2" edge="1">
          <mxGeometry relative="1" as="geometry">
            <mxPoint x="200" y="230.13043478260875" as="targetPoint" />
          </mxGeometry>
        </mxCell>
        <mxCell id="PB9eRc3K2WVdu8bXLjVY-2" value="y" style="ellipse;whiteSpace=wrap;html=1;" parent="1" vertex="1">
          <mxGeometry x="220" y="220" width="40" height="20" as="geometry" />
        </mxCell>
        <mxCell id="PB9eRc3K2WVdu8bXLjVY-11" style="edgeStyle=orthogonalEdgeStyle;rounded=0;orthogonalLoop=1;jettySize=auto;html=1;exitX=0;exitY=0.5;exitDx=0;exitDy=0;endArrow=none;startFill=0;" parent="1" source="PB9eRc3K2WVdu8bXLjVY-3" edge="1">
          <mxGeometry relative="1" as="geometry">
            <mxPoint x="200" y="260.13043478260875" as="targetPoint" />
          </mxGeometry>
        </mxCell>
        <mxCell id="PB9eRc3K2WVdu8bXLjVY-3" value="x" style="ellipse;whiteSpace=wrap;html=1;" parent="1" vertex="1">
          <mxGeometry x="220" y="250" width="40" height="20" as="geometry" />
        </mxCell>
        <mxCell id="PB9eRc3K2WVdu8bXLjVY-13" style="edgeStyle=orthogonalEdgeStyle;rounded=0;orthogonalLoop=1;jettySize=auto;html=1;exitX=1;exitY=0.5;exitDx=0;exitDy=0;endArrow=none;startFill=0;" parent="1" source="PB9eRc3K2WVdu8bXLjVY-7" edge="1">
          <mxGeometry relative="1" as="geometry">
            <mxPoint x="200" y="230.13043478260875" as="targetPoint" />
          </mxGeometry>
        </mxCell>
        <mxCell id="PB9eRc3K2WVdu8bXLjVY-7" value="ver_id" style="ellipse;whiteSpace=wrap;html=1;" parent="1" vertex="1">
          <mxGeometry x="140" y="220" width="40" height="20" as="geometry" />
        </mxCell>
        <mxCell id="PB9eRc3K2WVdu8bXLjVY-8" value="" style="endArrow=none;html=1;rounded=0;exitX=0.5;exitY=0;exitDx=0;exitDy=0;" parent="1" source="huuZUkolGfKJN9umVDMc-1" edge="1">
          <mxGeometry width="50" height="50" relative="1" as="geometry">
            <mxPoint x="250" y="300" as="sourcePoint" />
            <mxPoint x="200" y="200" as="targetPoint" />
          </mxGeometry>
        </mxCell>
        <mxCell id="PB9eRc3K2WVdu8bXLjVY-16" value="В будущем" style="rhombus;whiteSpace=wrap;html=1;" parent="1" vertex="1">
          <mxGeometry x="140" y="360" width="80" height="40" as="geometry" />
        </mxCell>
        <mxCell id="PB9eRc3K2WVdu8bXLjVY-25" style="edgeStyle=orthogonalEdgeStyle;rounded=0;orthogonalLoop=1;jettySize=auto;html=1;exitX=0.5;exitY=1;exitDx=0;exitDy=0;endArrow=none;startFill=0;" parent="1" source="PB9eRc3K2WVdu8bXLjVY-16" edge="1">
          <mxGeometry relative="1" as="geometry">
            <mxPoint x="230" y="340" as="targetPoint" />
            <Array as="points">
              <mxPoint x="180" y="420" />
              <mxPoint x="230" y="420" />
              <mxPoint x="230" y="340" />
              <mxPoint x="229" y="340" />
            </Array>
          </mxGeometry>
        </mxCell>
        <mxCell id="PB9eRc3K2WVdu8bXLjVY-45" style="edgeStyle=orthogonalEdgeStyle;rounded=0;orthogonalLoop=1;jettySize=auto;html=1;exitX=0;exitY=0.5;exitDx=0;exitDy=0;entryX=0;entryY=0.75;entryDx=0;entryDy=0;endArrow=none;startFill=0;" parent="1" source="PB9eRc3K2WVdu8bXLjVY-41" target="huuZUkolGfKJN9umVDMc-1" edge="1">
          <mxGeometry relative="1" as="geometry">
            <Array as="points">
              <mxPoint x="120" y="460" />
              <mxPoint x="120" y="330" />
              <mxPoint x="160" y="330" />
            </Array>
          </mxGeometry>
        </mxCell>
        <mxCell id="PB9eRc3K2WVdu8bXLjVY-46" style="edgeStyle=orthogonalEdgeStyle;rounded=0;orthogonalLoop=1;jettySize=auto;html=1;exitX=1;exitY=0.5;exitDx=0;exitDy=0;entryX=1;entryY=0.75;entryDx=0;entryDy=0;endArrow=none;startFill=0;" parent="1" source="PB9eRc3K2WVdu8bXLjVY-41" target="huuZUkolGfKJN9umVDMc-1" edge="1">
          <mxGeometry relative="1" as="geometry">
            <Array as="points">
              <mxPoint x="260" y="460" />
              <mxPoint x="260" y="330" />
              <mxPoint x="240" y="330" />
            </Array>
          </mxGeometry>
        </mxCell>
        <mxCell id="PB9eRc3K2WVdu8bXLjVY-41" value="В прошлом" style="rhombus;whiteSpace=wrap;html=1;" parent="1" vertex="1">
          <mxGeometry x="139.24" y="440" width="80" height="40" as="geometry" />
        </mxCell>
        <mxCell id="PB9eRc3K2WVdu8bXLjVY-126" style="edgeStyle=orthogonalEdgeStyle;rounded=0;orthogonalLoop=1;jettySize=auto;html=1;exitX=0.25;exitY=1;exitDx=0;exitDy=0;entryX=0.5;entryY=0;entryDx=0;entryDy=0;endArrow=none;startFill=0;" parent="1" source="PB9eRc3K2WVdu8bXLjVY-127" target="PB9eRc3K2WVdu8bXLjVY-128" edge="1">
          <mxGeometry relative="1" as="geometry" />
        </mxCell>
        <mxCell id="PB9eRc3K2WVdu8bXLjVY-198" style="edgeStyle=orthogonalEdgeStyle;rounded=0;orthogonalLoop=1;jettySize=auto;html=1;exitX=1;exitY=0.5;exitDx=0;exitDy=0;entryX=0.5;entryY=0;entryDx=0;entryDy=0;endArrow=none;startFill=0;" parent="1" source="PB9eRc3K2WVdu8bXLjVY-127" target="PB9eRc3K2WVdu8bXLjVY-197" edge="1">
          <mxGeometry relative="1" as="geometry" />
        </mxCell>
        <mxCell id="PB9eRc3K2WVdu8bXLjVY-320" style="edgeStyle=orthogonalEdgeStyle;rounded=0;orthogonalLoop=1;jettySize=auto;html=1;exitX=0.5;exitY=0;exitDx=0;exitDy=0;endArrow=none;startFill=0;" parent="1" source="PB9eRc3K2WVdu8bXLjVY-127" edge="1">
          <mxGeometry relative="1" as="geometry">
            <mxPoint x="680.0418848167538" y="230" as="targetPoint" />
          </mxGeometry>
        </mxCell>
        <mxCell id="PB9eRc3K2WVdu8bXLjVY-127" value="Ребро" style="rounded=0;whiteSpace=wrap;html=1;strokeWidth=3;" parent="1" vertex="1">
          <mxGeometry x="640" y="280" width="80" height="60" as="geometry" />
        </mxCell>
        <mxCell id="PB9eRc3K2WVdu8bXLjVY-128" value="В будущем" style="rhombus;whiteSpace=wrap;html=1;" parent="1" vertex="1">
          <mxGeometry x="620" y="360" width="80" height="40" as="geometry" />
        </mxCell>
        <mxCell id="PB9eRc3K2WVdu8bXLjVY-129" style="edgeStyle=orthogonalEdgeStyle;rounded=0;orthogonalLoop=1;jettySize=auto;html=1;exitX=0.5;exitY=1;exitDx=0;exitDy=0;endArrow=none;startFill=0;" parent="1" source="PB9eRc3K2WVdu8bXLjVY-128" edge="1">
          <mxGeometry relative="1" as="geometry">
            <mxPoint x="710" y="340" as="targetPoint" />
            <Array as="points">
              <mxPoint x="660" y="420" />
              <mxPoint x="710" y="420" />
              <mxPoint x="710" y="340" />
              <mxPoint x="709" y="340" />
            </Array>
          </mxGeometry>
        </mxCell>
        <mxCell id="PB9eRc3K2WVdu8bXLjVY-130" style="edgeStyle=orthogonalEdgeStyle;rounded=0;orthogonalLoop=1;jettySize=auto;html=1;exitX=0;exitY=0.5;exitDx=0;exitDy=0;entryX=0;entryY=0.75;entryDx=0;entryDy=0;endArrow=none;startFill=0;" parent="1" source="PB9eRc3K2WVdu8bXLjVY-132" target="PB9eRc3K2WVdu8bXLjVY-127" edge="1">
          <mxGeometry relative="1" as="geometry">
            <Array as="points">
              <mxPoint x="600" y="460" />
              <mxPoint x="600" y="330" />
              <mxPoint x="640" y="330" />
            </Array>
          </mxGeometry>
        </mxCell>
        <mxCell id="PB9eRc3K2WVdu8bXLjVY-131" style="edgeStyle=orthogonalEdgeStyle;rounded=0;orthogonalLoop=1;jettySize=auto;html=1;exitX=1;exitY=0.5;exitDx=0;exitDy=0;entryX=1;entryY=0.75;entryDx=0;entryDy=0;endArrow=none;startFill=0;" parent="1" source="PB9eRc3K2WVdu8bXLjVY-132" target="PB9eRc3K2WVdu8bXLjVY-127" edge="1">
          <mxGeometry relative="1" as="geometry">
            <Array as="points">
              <mxPoint x="740" y="460" />
              <mxPoint x="740" y="330" />
              <mxPoint x="720" y="330" />
            </Array>
          </mxGeometry>
        </mxCell>
        <mxCell id="PB9eRc3K2WVdu8bXLjVY-132" value="В прошлом" style="rhombus;whiteSpace=wrap;html=1;" parent="1" vertex="1">
          <mxGeometry x="619.24" y="440" width="80" height="40" as="geometry" />
        </mxCell>
        <mxCell id="PB9eRc3K2WVdu8bXLjVY-133" value="Начало" style="rhombus;whiteSpace=wrap;html=1;" parent="1" vertex="1">
          <mxGeometry x="399.78" y="250" width="79.6" height="40" as="geometry" />
        </mxCell>
        <mxCell id="PB9eRc3K2WVdu8bXLjVY-191" style="edgeStyle=orthogonalEdgeStyle;rounded=0;orthogonalLoop=1;jettySize=auto;html=1;exitX=1;exitY=0.5;exitDx=0;exitDy=0;entryX=0;entryY=0.5;entryDx=0;entryDy=0;endArrow=none;startFill=0;" parent="1" source="PB9eRc3K2WVdu8bXLjVY-142" target="PB9eRc3K2WVdu8bXLjVY-189" edge="1">
          <mxGeometry relative="1" as="geometry" />
        </mxCell>
        <mxCell id="PB9eRc3K2WVdu8bXLjVY-201" style="edgeStyle=orthogonalEdgeStyle;rounded=0;orthogonalLoop=1;jettySize=auto;html=1;exitX=0;exitY=0.5;exitDx=0;exitDy=0;entryX=0.5;entryY=1;entryDx=0;entryDy=0;endArrow=none;startFill=0;" parent="1" source="PB9eRc3K2WVdu8bXLjVY-142" target="PB9eRc3K2WVdu8bXLjVY-200" edge="1">
          <mxGeometry relative="1" as="geometry" />
        </mxCell>
        <mxCell id="PB9eRc3K2WVdu8bXLjVY-247" style="edgeStyle=orthogonalEdgeStyle;rounded=0;orthogonalLoop=1;jettySize=auto;html=1;exitX=0.5;exitY=1;exitDx=0;exitDy=0;endArrow=none;startFill=0;" parent="1" source="PB9eRc3K2WVdu8bXLjVY-142" edge="1">
          <mxGeometry relative="1" as="geometry">
            <mxPoint x="200" y="780" as="targetPoint" />
          </mxGeometry>
        </mxCell>
        <mxCell id="PB9eRc3K2WVdu8bXLjVY-142" value="Сечение" style="rounded=0;whiteSpace=wrap;html=1;strokeWidth=3;" parent="1" vertex="1">
          <mxGeometry x="159.96" y="640" width="80" height="60" as="geometry" />
        </mxCell>
        <mxCell id="PB9eRc3K2WVdu8bXLjVY-167" style="edgeStyle=orthogonalEdgeStyle;rounded=0;orthogonalLoop=1;jettySize=auto;html=1;exitX=0.5;exitY=1;exitDx=0;exitDy=0;entryX=0.25;entryY=0;entryDx=0;entryDy=0;endArrow=none;startFill=0;" parent="1" source="PB9eRc3K2WVdu8bXLjVY-143" target="PB9eRc3K2WVdu8bXLjVY-142" edge="1">
          <mxGeometry relative="1" as="geometry" />
        </mxCell>
        <mxCell id="PB9eRc3K2WVdu8bXLjVY-143" value="В будущем" style="rhombus;whiteSpace=wrap;html=1;" parent="1" vertex="1">
          <mxGeometry x="140" y="580" width="80" height="40" as="geometry" />
        </mxCell>
        <mxCell id="PB9eRc3K2WVdu8bXLjVY-170" style="edgeStyle=orthogonalEdgeStyle;rounded=0;orthogonalLoop=1;jettySize=auto;html=1;exitX=1;exitY=0.5;exitDx=0;exitDy=0;endArrow=none;startFill=0;" parent="1" source="PB9eRc3K2WVdu8bXLjVY-147" edge="1">
          <mxGeometry relative="1" as="geometry">
            <mxPoint x="240" y="650" as="targetPoint" />
            <Array as="points">
              <mxPoint x="250" y="520" />
              <mxPoint x="250" y="650" />
            </Array>
          </mxGeometry>
        </mxCell>
        <mxCell id="PB9eRc3K2WVdu8bXLjVY-147" value="В прошлом" style="rhombus;whiteSpace=wrap;html=1;" parent="1" vertex="1">
          <mxGeometry x="140.00000000000003" y="500" width="80" height="40" as="geometry" />
        </mxCell>
        <mxCell id="PB9eRc3K2WVdu8bXLjVY-168" style="edgeStyle=orthogonalEdgeStyle;rounded=0;orthogonalLoop=1;jettySize=auto;html=1;exitX=0.5;exitY=0;exitDx=0;exitDy=0;entryX=0.893;entryY=-0.004;entryDx=0;entryDy=0;entryPerimeter=0;endArrow=none;startFill=0;" parent="1" source="PB9eRc3K2WVdu8bXLjVY-143" target="PB9eRc3K2WVdu8bXLjVY-142" edge="1">
          <mxGeometry relative="1" as="geometry">
            <Array as="points">
              <mxPoint x="180" y="560" />
              <mxPoint x="230" y="560" />
              <mxPoint x="230" y="640" />
              <mxPoint x="231" y="640" />
            </Array>
          </mxGeometry>
        </mxCell>
        <mxCell id="PB9eRc3K2WVdu8bXLjVY-169" style="edgeStyle=orthogonalEdgeStyle;rounded=0;orthogonalLoop=1;jettySize=auto;html=1;exitX=0;exitY=0.5;exitDx=0;exitDy=0;entryX=-0.006;entryY=0.137;entryDx=0;entryDy=0;entryPerimeter=0;endArrow=none;startFill=0;" parent="1" source="PB9eRc3K2WVdu8bXLjVY-147" target="PB9eRc3K2WVdu8bXLjVY-142" edge="1">
          <mxGeometry relative="1" as="geometry">
            <Array as="points">
              <mxPoint x="120" y="520" />
              <mxPoint x="120" y="650" />
              <mxPoint x="159" y="650" />
            </Array>
          </mxGeometry>
        </mxCell>
        <mxCell id="PB9eRc3K2WVdu8bXLjVY-193" style="edgeStyle=orthogonalEdgeStyle;rounded=0;orthogonalLoop=1;jettySize=auto;html=1;exitX=1;exitY=0.5;exitDx=0;exitDy=0;entryX=0;entryY=0.5;entryDx=0;entryDy=0;endArrow=none;startFill=0;" parent="1" source="PB9eRc3K2WVdu8bXLjVY-172" target="PB9eRc3K2WVdu8bXLjVY-190" edge="1">
          <mxGeometry relative="1" as="geometry" />
        </mxCell>
        <mxCell id="PB9eRc3K2WVdu8bXLjVY-317" style="edgeStyle=orthogonalEdgeStyle;rounded=0;orthogonalLoop=1;jettySize=auto;html=1;exitX=0.5;exitY=1;exitDx=0;exitDy=0;endArrow=none;startFill=0;" parent="1" source="PB9eRc3K2WVdu8bXLjVY-172" edge="1">
          <mxGeometry relative="1" as="geometry">
            <mxPoint x="439.2413793103449" y="649.9999999999999" as="targetPoint" />
          </mxGeometry>
        </mxCell>
        <mxCell id="PB9eRc3K2WVdu8bXLjVY-172" value="Трубка" style="rounded=0;whiteSpace=wrap;html=1;strokeWidth=3;" parent="1" vertex="1">
          <mxGeometry x="399.35999999999996" y="540" width="80" height="60" as="geometry" />
        </mxCell>
        <mxCell id="PB9eRc3K2WVdu8bXLjVY-173" style="edgeStyle=orthogonalEdgeStyle;rounded=0;orthogonalLoop=1;jettySize=auto;html=1;exitX=0.5;exitY=1;exitDx=0;exitDy=0;entryX=0.25;entryY=0;entryDx=0;entryDy=0;endArrow=none;startFill=0;" parent="1" source="PB9eRc3K2WVdu8bXLjVY-174" target="PB9eRc3K2WVdu8bXLjVY-172" edge="1">
          <mxGeometry relative="1" as="geometry" />
        </mxCell>
        <mxCell id="PB9eRc3K2WVdu8bXLjVY-174" value="В будущем" style="rhombus;whiteSpace=wrap;html=1;" parent="1" vertex="1">
          <mxGeometry x="379.4" y="480" width="80" height="40" as="geometry" />
        </mxCell>
        <mxCell id="PB9eRc3K2WVdu8bXLjVY-175" style="edgeStyle=orthogonalEdgeStyle;rounded=0;orthogonalLoop=1;jettySize=auto;html=1;exitX=1;exitY=0.5;exitDx=0;exitDy=0;endArrow=none;startFill=0;" parent="1" source="PB9eRc3K2WVdu8bXLjVY-176" edge="1">
          <mxGeometry relative="1" as="geometry">
            <mxPoint x="479.4" y="550" as="targetPoint" />
            <Array as="points">
              <mxPoint x="489.4" y="420" />
              <mxPoint x="489.4" y="550" />
            </Array>
          </mxGeometry>
        </mxCell>
        <mxCell id="PB9eRc3K2WVdu8bXLjVY-176" value="В прошлом" style="rhombus;whiteSpace=wrap;html=1;" parent="1" vertex="1">
          <mxGeometry x="379.4" y="400" width="80" height="40" as="geometry" />
        </mxCell>
        <mxCell id="PB9eRc3K2WVdu8bXLjVY-177" style="edgeStyle=orthogonalEdgeStyle;rounded=0;orthogonalLoop=1;jettySize=auto;html=1;exitX=0.5;exitY=0;exitDx=0;exitDy=0;entryX=0.893;entryY=-0.004;entryDx=0;entryDy=0;entryPerimeter=0;endArrow=none;startFill=0;" parent="1" source="PB9eRc3K2WVdu8bXLjVY-174" target="PB9eRc3K2WVdu8bXLjVY-172" edge="1">
          <mxGeometry relative="1" as="geometry">
            <Array as="points">
              <mxPoint x="419.4" y="460" />
              <mxPoint x="469.4" y="460" />
              <mxPoint x="469.4" y="540" />
              <mxPoint x="470.4" y="540" />
            </Array>
          </mxGeometry>
        </mxCell>
        <mxCell id="PB9eRc3K2WVdu8bXLjVY-178" style="edgeStyle=orthogonalEdgeStyle;rounded=0;orthogonalLoop=1;jettySize=auto;html=1;exitX=0;exitY=0.5;exitDx=0;exitDy=0;entryX=-0.006;entryY=0.137;entryDx=0;entryDy=0;entryPerimeter=0;endArrow=none;startFill=0;" parent="1" source="PB9eRc3K2WVdu8bXLjVY-176" target="PB9eRc3K2WVdu8bXLjVY-172" edge="1">
          <mxGeometry relative="1" as="geometry">
            <Array as="points">
              <mxPoint x="359.4" y="420" />
              <mxPoint x="359.4" y="550" />
              <mxPoint x="398.4" y="550" />
            </Array>
          </mxGeometry>
        </mxCell>
        <mxCell id="PB9eRc3K2WVdu8bXLjVY-316" style="edgeStyle=orthogonalEdgeStyle;rounded=0;orthogonalLoop=1;jettySize=auto;html=1;exitX=0.5;exitY=1;exitDx=0;exitDy=0;endArrow=none;startFill=0;" parent="1" source="PB9eRc3K2WVdu8bXLjVY-179" edge="1">
          <mxGeometry relative="1" as="geometry">
            <mxPoint x="679.5709570957096" y="750" as="targetPoint" />
          </mxGeometry>
        </mxCell>
        <mxCell id="PB9eRc3K2WVdu8bXLjVY-179" value="Сегмент" style="rounded=0;whiteSpace=wrap;html=1;strokeWidth=3;" parent="1" vertex="1">
          <mxGeometry x="639.58" y="640" width="80" height="60" as="geometry" />
        </mxCell>
        <mxCell id="PB9eRc3K2WVdu8bXLjVY-180" style="edgeStyle=orthogonalEdgeStyle;rounded=0;orthogonalLoop=1;jettySize=auto;html=1;exitX=0.5;exitY=1;exitDx=0;exitDy=0;entryX=0.25;entryY=0;entryDx=0;entryDy=0;endArrow=none;startFill=0;" parent="1" source="PB9eRc3K2WVdu8bXLjVY-181" target="PB9eRc3K2WVdu8bXLjVY-179" edge="1">
          <mxGeometry relative="1" as="geometry" />
        </mxCell>
        <mxCell id="PB9eRc3K2WVdu8bXLjVY-181" value="В будущем" style="rhombus;whiteSpace=wrap;html=1;" parent="1" vertex="1">
          <mxGeometry x="619.62" y="580" width="80" height="40" as="geometry" />
        </mxCell>
        <mxCell id="PB9eRc3K2WVdu8bXLjVY-182" style="edgeStyle=orthogonalEdgeStyle;rounded=0;orthogonalLoop=1;jettySize=auto;html=1;exitX=1;exitY=0.5;exitDx=0;exitDy=0;endArrow=none;startFill=0;" parent="1" source="PB9eRc3K2WVdu8bXLjVY-183" edge="1">
          <mxGeometry relative="1" as="geometry">
            <mxPoint x="719.62" y="650" as="targetPoint" />
            <Array as="points">
              <mxPoint x="729.62" y="520" />
              <mxPoint x="729.62" y="650" />
            </Array>
          </mxGeometry>
        </mxCell>
        <mxCell id="PB9eRc3K2WVdu8bXLjVY-183" value="В прошлом" style="rhombus;whiteSpace=wrap;html=1;" parent="1" vertex="1">
          <mxGeometry x="619.62" y="500" width="80" height="40" as="geometry" />
        </mxCell>
        <mxCell id="PB9eRc3K2WVdu8bXLjVY-184" style="edgeStyle=orthogonalEdgeStyle;rounded=0;orthogonalLoop=1;jettySize=auto;html=1;exitX=0.5;exitY=0;exitDx=0;exitDy=0;entryX=0.893;entryY=-0.004;entryDx=0;entryDy=0;entryPerimeter=0;endArrow=none;startFill=0;" parent="1" source="PB9eRc3K2WVdu8bXLjVY-181" target="PB9eRc3K2WVdu8bXLjVY-179" edge="1">
          <mxGeometry relative="1" as="geometry">
            <Array as="points">
              <mxPoint x="659.62" y="560" />
              <mxPoint x="709.62" y="560" />
              <mxPoint x="709.62" y="640" />
              <mxPoint x="710.62" y="640" />
            </Array>
          </mxGeometry>
        </mxCell>
        <mxCell id="PB9eRc3K2WVdu8bXLjVY-185" style="edgeStyle=orthogonalEdgeStyle;rounded=0;orthogonalLoop=1;jettySize=auto;html=1;exitX=0;exitY=0.5;exitDx=0;exitDy=0;entryX=-0.006;entryY=0.137;entryDx=0;entryDy=0;entryPerimeter=0;endArrow=none;startFill=0;" parent="1" source="PB9eRc3K2WVdu8bXLjVY-183" target="PB9eRc3K2WVdu8bXLjVY-179" edge="1">
          <mxGeometry relative="1" as="geometry">
            <Array as="points">
              <mxPoint x="599.62" y="520" />
              <mxPoint x="599.62" y="650" />
              <mxPoint x="638.62" y="650" />
            </Array>
          </mxGeometry>
        </mxCell>
        <mxCell id="PB9eRc3K2WVdu8bXLjVY-192" style="edgeStyle=orthogonalEdgeStyle;rounded=0;orthogonalLoop=1;jettySize=auto;html=1;exitX=1;exitY=0.5;exitDx=0;exitDy=0;entryX=0;entryY=0.5;entryDx=0;entryDy=0;endArrow=none;startFill=0;" parent="1" source="PB9eRc3K2WVdu8bXLjVY-189" target="PB9eRc3K2WVdu8bXLjVY-172" edge="1">
          <mxGeometry relative="1" as="geometry">
            <mxPoint x="359.6200000000001" y="530" as="sourcePoint" />
          </mxGeometry>
        </mxCell>
        <mxCell id="PB9eRc3K2WVdu8bXLjVY-189" value="Содержит" style="rhombus;whiteSpace=wrap;html=1;" parent="1" vertex="1">
          <mxGeometry x="260" y="650" width="79.6" height="40" as="geometry" />
        </mxCell>
        <mxCell id="PB9eRc3K2WVdu8bXLjVY-194" style="edgeStyle=orthogonalEdgeStyle;rounded=0;orthogonalLoop=1;jettySize=auto;html=1;exitX=1;exitY=0.5;exitDx=0;exitDy=0;entryX=0;entryY=0.5;entryDx=0;entryDy=0;endArrow=none;startFill=0;" parent="1" source="PB9eRc3K2WVdu8bXLjVY-190" target="PB9eRc3K2WVdu8bXLjVY-179" edge="1">
          <mxGeometry relative="1" as="geometry" />
        </mxCell>
        <mxCell id="PB9eRc3K2WVdu8bXLjVY-190" value="Содержит" style="rhombus;whiteSpace=wrap;html=1;" parent="1" vertex="1">
          <mxGeometry x="539.64" y="650" width="79.6" height="40" as="geometry" />
        </mxCell>
        <mxCell id="PB9eRc3K2WVdu8bXLjVY-199" style="edgeStyle=orthogonalEdgeStyle;rounded=0;orthogonalLoop=1;jettySize=auto;html=1;exitX=0.5;exitY=1;exitDx=0;exitDy=0;entryX=1;entryY=0.5;entryDx=0;entryDy=0;endArrow=none;startFill=0;" parent="1" source="PB9eRc3K2WVdu8bXLjVY-197" target="PB9eRc3K2WVdu8bXLjVY-179" edge="1">
          <mxGeometry relative="1" as="geometry" />
        </mxCell>
        <mxCell id="PB9eRc3K2WVdu8bXLjVY-197" value="Содержит" style="rhombus;whiteSpace=wrap;html=1;" parent="1" vertex="1">
          <mxGeometry x="720" y="470" width="79.6" height="40" as="geometry" />
        </mxCell>
        <mxCell id="PB9eRc3K2WVdu8bXLjVY-200" value="Содержит" style="rhombus;whiteSpace=wrap;html=1;" parent="1" vertex="1">
          <mxGeometry x="59.639999999999986" y="470" width="79.6" height="40" as="geometry" />
        </mxCell>
        <mxCell id="PB9eRc3K2WVdu8bXLjVY-203" value="1" style="text;html=1;align=center;verticalAlign=middle;whiteSpace=wrap;rounded=0;" parent="1" vertex="1">
          <mxGeometry x="619.24" y="280" width="20.04" height="20" as="geometry" />
        </mxCell>
        <mxCell id="PB9eRc3K2WVdu8bXLjVY-204" value="1" style="text;html=1;align=center;verticalAlign=middle;whiteSpace=wrap;rounded=0;" parent="1" vertex="1">
          <mxGeometry x="719.58" y="670" width="20.04" height="20" as="geometry" />
        </mxCell>
        <mxCell id="PB9eRc3K2WVdu8bXLjVY-206" value="1" style="text;html=1;align=center;verticalAlign=middle;whiteSpace=wrap;rounded=0;" parent="1" vertex="1">
          <mxGeometry x="510" y="570" width="20.04" height="20" as="geometry" />
        </mxCell>
        <mxCell id="PB9eRc3K2WVdu8bXLjVY-207" value="1" style="text;html=1;align=center;verticalAlign=middle;whiteSpace=wrap;rounded=0;" parent="1" vertex="1">
          <mxGeometry x="350" y="570" width="20.04" height="20" as="geometry" />
        </mxCell>
        <mxCell id="PB9eRc3K2WVdu8bXLjVY-208" value="1" style="text;html=1;align=center;verticalAlign=middle;whiteSpace=wrap;rounded=0;" parent="1" vertex="1">
          <mxGeometry x="139.24" y="670" width="20.04" height="20" as="geometry" />
        </mxCell>
        <mxCell id="PB9eRc3K2WVdu8bXLjVY-211" value="n" style="text;html=1;align=center;verticalAlign=middle;whiteSpace=wrap;rounded=0;" parent="1" vertex="1">
          <mxGeometry x="140" y="290" width="20.04" height="20" as="geometry" />
        </mxCell>
        <mxCell id="PB9eRc3K2WVdu8bXLjVY-212" value="m" style="text;html=1;align=center;verticalAlign=middle;whiteSpace=wrap;rounded=0;" parent="1" vertex="1">
          <mxGeometry x="719.58" y="290" width="20.04" height="20" as="geometry" />
        </mxCell>
        <mxCell id="PB9eRc3K2WVdu8bXLjVY-213" value="p - 1" style="text;html=1;align=center;verticalAlign=middle;whiteSpace=wrap;rounded=0;" parent="1" vertex="1">
          <mxGeometry x="610" y="670" width="29.28" height="20" as="geometry" />
        </mxCell>
        <mxCell id="PB9eRc3K2WVdu8bXLjVY-214" value="p" style="text;html=1;align=center;verticalAlign=middle;whiteSpace=wrap;rounded=0;" parent="1" vertex="1">
          <mxGeometry x="240" y="670" width="20.04" height="20" as="geometry" />
        </mxCell>
        <mxCell id="PB9eRc3K2WVdu8bXLjVY-215" style="edgeStyle=orthogonalEdgeStyle;rounded=0;orthogonalLoop=1;jettySize=auto;html=1;exitX=1;exitY=0.5;exitDx=0;exitDy=0;endArrow=none;startFill=0;" parent="1" source="PB9eRc3K2WVdu8bXLjVY-216" edge="1">
          <mxGeometry relative="1" as="geometry">
            <mxPoint x="679.24" y="260.13043478260875" as="targetPoint" />
          </mxGeometry>
        </mxCell>
        <mxCell id="PB9eRc3K2WVdu8bXLjVY-216" value="Id" style="ellipse;whiteSpace=wrap;html=1;" parent="1" vertex="1">
          <mxGeometry x="619.24" y="250" width="40" height="20" as="geometry" />
        </mxCell>
        <mxCell id="PB9eRc3K2WVdu8bXLjVY-221" style="edgeStyle=orthogonalEdgeStyle;rounded=0;orthogonalLoop=1;jettySize=auto;html=1;exitX=0;exitY=0.5;exitDx=0;exitDy=0;endArrow=none;startFill=0;" parent="1" source="PB9eRc3K2WVdu8bXLjVY-222" edge="1">
          <mxGeometry relative="1" as="geometry">
            <mxPoint x="679.24" y="260.13043478260875" as="targetPoint" />
          </mxGeometry>
        </mxCell>
        <mxCell id="PB9eRc3K2WVdu8bXLjVY-222" value="index" style="ellipse;whiteSpace=wrap;html=1;" parent="1" vertex="1">
          <mxGeometry x="699.24" y="250" width="40" height="20" as="geometry" />
        </mxCell>
        <mxCell id="PB9eRc3K2WVdu8bXLjVY-223" style="edgeStyle=orthogonalEdgeStyle;rounded=0;orthogonalLoop=1;jettySize=auto;html=1;exitX=1;exitY=0.5;exitDx=0;exitDy=0;endArrow=none;startFill=0;" parent="1" source="PB9eRc3K2WVdu8bXLjVY-224" edge="1">
          <mxGeometry relative="1" as="geometry">
            <mxPoint x="680" y="230" as="targetPoint" />
          </mxGeometry>
        </mxCell>
        <mxCell id="PB9eRc3K2WVdu8bXLjVY-224" value="ver_id" style="ellipse;whiteSpace=wrap;html=1;" parent="1" vertex="1">
          <mxGeometry x="619.24" y="220" width="40" height="20" as="geometry" />
        </mxCell>
        <mxCell id="PB9eRc3K2WVdu8bXLjVY-226" style="edgeStyle=orthogonalEdgeStyle;rounded=0;orthogonalLoop=1;jettySize=auto;html=1;exitX=1;exitY=0.5;exitDx=0;exitDy=0;entryX=-0.001;entryY=0.168;entryDx=0;entryDy=0;entryPerimeter=0;endArrow=none;startFill=0;" parent="1" source="PB9eRc3K2WVdu8bXLjVY-133" target="PB9eRc3K2WVdu8bXLjVY-127" edge="1">
          <mxGeometry relative="1" as="geometry">
            <Array as="points">
              <mxPoint x="560" y="270" />
              <mxPoint x="560" y="300" />
              <mxPoint x="640" y="300" />
            </Array>
          </mxGeometry>
        </mxCell>
        <mxCell id="PB9eRc3K2WVdu8bXLjVY-227" style="edgeStyle=orthogonalEdgeStyle;rounded=0;orthogonalLoop=1;jettySize=auto;html=1;exitX=0;exitY=0.5;exitDx=0;exitDy=0;entryX=0.998;entryY=0.171;entryDx=0;entryDy=0;entryPerimeter=0;endArrow=none;startFill=0;" parent="1" source="PB9eRc3K2WVdu8bXLjVY-133" target="huuZUkolGfKJN9umVDMc-1" edge="1">
          <mxGeometry relative="1" as="geometry">
            <Array as="points">
              <mxPoint x="320" y="270" />
              <mxPoint x="320" y="300" />
              <mxPoint x="240" y="300" />
            </Array>
          </mxGeometry>
        </mxCell>
        <mxCell id="PB9eRc3K2WVdu8bXLjVY-230" style="edgeStyle=orthogonalEdgeStyle;rounded=0;orthogonalLoop=1;jettySize=auto;html=1;exitX=0;exitY=0.5;exitDx=0;exitDy=0;endArrow=none;startFill=0;" parent="1" source="PB9eRc3K2WVdu8bXLjVY-229" edge="1">
          <mxGeometry relative="1" as="geometry">
            <mxPoint x="240.0000000000001" y="320" as="targetPoint" />
            <Array as="points">
              <mxPoint x="320" y="350" />
              <mxPoint x="320" y="320" />
            </Array>
          </mxGeometry>
        </mxCell>
        <mxCell id="PB9eRc3K2WVdu8bXLjVY-231" style="edgeStyle=orthogonalEdgeStyle;rounded=0;orthogonalLoop=1;jettySize=auto;html=1;exitX=1;exitY=0.5;exitDx=0;exitDy=0;endArrow=none;startFill=0;" parent="1" source="PB9eRc3K2WVdu8bXLjVY-229" edge="1">
          <mxGeometry relative="1" as="geometry">
            <mxPoint x="640" y="320" as="targetPoint" />
            <Array as="points">
              <mxPoint x="560" y="350" />
              <mxPoint x="560" y="320" />
            </Array>
          </mxGeometry>
        </mxCell>
        <mxCell id="PB9eRc3K2WVdu8bXLjVY-229" value="Конец" style="rhombus;whiteSpace=wrap;html=1;" parent="1" vertex="1">
          <mxGeometry x="399.97999999999996" y="330" width="79.6" height="40" as="geometry" />
        </mxCell>
        <mxCell id="PB9eRc3K2WVdu8bXLjVY-232" value="1" style="text;html=1;align=center;verticalAlign=middle;whiteSpace=wrap;rounded=0;" parent="1" vertex="1">
          <mxGeometry x="620" y="300" width="20.04" height="20" as="geometry" />
        </mxCell>
        <mxCell id="PB9eRc3K2WVdu8bXLjVY-233" value="1" style="text;html=1;align=center;verticalAlign=middle;whiteSpace=wrap;rounded=0;" parent="1" vertex="1">
          <mxGeometry x="240" y="300" width="20.04" height="20" as="geometry" />
        </mxCell>
        <mxCell id="PB9eRc3K2WVdu8bXLjVY-236" value="1" style="text;html=1;align=center;verticalAlign=middle;whiteSpace=wrap;rounded=0;" parent="1" vertex="1">
          <mxGeometry x="240" y="280" width="20.04" height="20" as="geometry" />
        </mxCell>
        <mxCell id="PB9eRc3K2WVdu8bXLjVY-237" style="edgeStyle=orthogonalEdgeStyle;rounded=0;orthogonalLoop=1;jettySize=auto;html=1;exitX=1;exitY=0.5;exitDx=0;exitDy=0;endArrow=none;startFill=0;" parent="1" source="PB9eRc3K2WVdu8bXLjVY-238" edge="1">
          <mxGeometry relative="1" as="geometry">
            <mxPoint x="199.24" y="750.1304347826087" as="targetPoint" />
          </mxGeometry>
        </mxCell>
        <mxCell id="PB9eRc3K2WVdu8bXLjVY-238" value="index" style="ellipse;whiteSpace=wrap;html=1;" parent="1" vertex="1">
          <mxGeometry x="140" y="740" width="40" height="20" as="geometry" />
        </mxCell>
        <mxCell id="PB9eRc3K2WVdu8bXLjVY-239" style="edgeStyle=orthogonalEdgeStyle;rounded=0;orthogonalLoop=1;jettySize=auto;html=1;exitX=0;exitY=0.5;exitDx=0;exitDy=0;endArrow=none;startFill=0;" parent="1" source="PB9eRc3K2WVdu8bXLjVY-240" edge="1">
          <mxGeometry relative="1" as="geometry">
            <mxPoint x="200.04000000000002" y="720.1304347826087" as="targetPoint" />
          </mxGeometry>
        </mxCell>
        <mxCell id="PB9eRc3K2WVdu8bXLjVY-240" value="z_cen" style="ellipse;whiteSpace=wrap;html=1;" parent="1" vertex="1">
          <mxGeometry x="220.04000000000002" y="710" width="40" height="20" as="geometry" />
        </mxCell>
        <mxCell id="PB9eRc3K2WVdu8bXLjVY-241" style="edgeStyle=orthogonalEdgeStyle;rounded=0;orthogonalLoop=1;jettySize=auto;html=1;exitX=0;exitY=0.5;exitDx=0;exitDy=0;endArrow=none;startFill=0;" parent="1" source="PB9eRc3K2WVdu8bXLjVY-242" edge="1">
          <mxGeometry relative="1" as="geometry">
            <mxPoint x="199.24" y="750.1304347826087" as="targetPoint" />
          </mxGeometry>
        </mxCell>
        <mxCell id="PB9eRc3K2WVdu8bXLjVY-242" value="y_cen" style="ellipse;whiteSpace=wrap;html=1;" parent="1" vertex="1">
          <mxGeometry x="220.04000000000002" y="740" width="40" height="20" as="geometry" />
        </mxCell>
        <mxCell id="PB9eRc3K2WVdu8bXLjVY-243" style="edgeStyle=orthogonalEdgeStyle;rounded=0;orthogonalLoop=1;jettySize=auto;html=1;exitX=0;exitY=0.5;exitDx=0;exitDy=0;endArrow=none;startFill=0;" parent="1" source="PB9eRc3K2WVdu8bXLjVY-244" edge="1">
          <mxGeometry relative="1" as="geometry">
            <mxPoint x="200" y="780" as="targetPoint" />
          </mxGeometry>
        </mxCell>
        <mxCell id="PB9eRc3K2WVdu8bXLjVY-244" value="x_cen" style="ellipse;whiteSpace=wrap;html=1;" parent="1" vertex="1">
          <mxGeometry x="220.04000000000002" y="770" width="40" height="20" as="geometry" />
        </mxCell>
        <mxCell id="PB9eRc3K2WVdu8bXLjVY-245" style="edgeStyle=orthogonalEdgeStyle;rounded=0;orthogonalLoop=1;jettySize=auto;html=1;exitX=1;exitY=0.5;exitDx=0;exitDy=0;endArrow=none;startFill=0;" parent="1" source="PB9eRc3K2WVdu8bXLjVY-246" edge="1">
          <mxGeometry relative="1" as="geometry">
            <mxPoint x="200" y="720" as="targetPoint" />
          </mxGeometry>
        </mxCell>
        <mxCell id="PB9eRc3K2WVdu8bXLjVY-246" value="ver_id" style="ellipse;whiteSpace=wrap;html=1;" parent="1" vertex="1">
          <mxGeometry x="140" y="710" width="40" height="20" as="geometry" />
        </mxCell>
        <mxCell id="PB9eRc3K2WVdu8bXLjVY-270" value="1" style="text;html=1;align=center;verticalAlign=middle;whiteSpace=wrap;rounded=0;" parent="1" vertex="1">
          <mxGeometry x="379.32" y="530" width="20.04" height="20" as="geometry" />
        </mxCell>
        <mxCell id="PB9eRc3K2WVdu8bXLjVY-271" value="1" style="text;html=1;align=center;verticalAlign=middle;whiteSpace=wrap;rounded=0;" parent="1" vertex="1">
          <mxGeometry x="419.78" y="520" width="20.04" height="20" as="geometry" />
        </mxCell>
        <mxCell id="PB9eRc3K2WVdu8bXLjVY-272" value="1" style="text;html=1;align=center;verticalAlign=middle;whiteSpace=wrap;rounded=0;" parent="1" vertex="1">
          <mxGeometry x="450" y="520" width="20.04" height="20" as="geometry" />
        </mxCell>
        <mxCell id="PB9eRc3K2WVdu8bXLjVY-273" value="1" style="text;html=1;align=center;verticalAlign=middle;whiteSpace=wrap;rounded=0;" parent="1" vertex="1">
          <mxGeometry x="489.96" y="530" width="20.04" height="20" as="geometry" />
        </mxCell>
        <mxCell id="PB9eRc3K2WVdu8bXLjVY-274" value="1" style="text;html=1;align=center;verticalAlign=middle;whiteSpace=wrap;rounded=0;" parent="1" vertex="1">
          <mxGeometry x="729.88" y="630" width="20.04" height="20" as="geometry" />
        </mxCell>
        <mxCell id="PB9eRc3K2WVdu8bXLjVY-275" value="1" style="text;html=1;align=center;verticalAlign=middle;whiteSpace=wrap;rounded=0;" parent="1" vertex="1">
          <mxGeometry x="689.92" y="620" width="20.04" height="20" as="geometry" />
        </mxCell>
        <mxCell id="PB9eRc3K2WVdu8bXLjVY-276" value="1" style="text;html=1;align=center;verticalAlign=middle;whiteSpace=wrap;rounded=0;" parent="1" vertex="1">
          <mxGeometry x="659.6999999999999" y="620" width="20.04" height="20" as="geometry" />
        </mxCell>
        <mxCell id="PB9eRc3K2WVdu8bXLjVY-277" value="1" style="text;html=1;align=center;verticalAlign=middle;whiteSpace=wrap;rounded=0;" parent="1" vertex="1">
          <mxGeometry x="619.24" y="630" width="20.04" height="20" as="geometry" />
        </mxCell>
        <mxCell id="PB9eRc3K2WVdu8bXLjVY-278" value="1" style="text;html=1;align=center;verticalAlign=middle;whiteSpace=wrap;rounded=0;" parent="1" vertex="1">
          <mxGeometry x="250.64" y="630" width="20.04" height="20" as="geometry" />
        </mxCell>
        <mxCell id="PB9eRc3K2WVdu8bXLjVY-279" value="1" style="text;html=1;align=center;verticalAlign=middle;whiteSpace=wrap;rounded=0;" parent="1" vertex="1">
          <mxGeometry x="210.67999999999995" y="620" width="20.04" height="20" as="geometry" />
        </mxCell>
        <mxCell id="PB9eRc3K2WVdu8bXLjVY-280" value="1" style="text;html=1;align=center;verticalAlign=middle;whiteSpace=wrap;rounded=0;" parent="1" vertex="1">
          <mxGeometry x="180.45999999999992" y="620" width="20.04" height="20" as="geometry" />
        </mxCell>
        <mxCell id="PB9eRc3K2WVdu8bXLjVY-281" value="1" style="text;html=1;align=center;verticalAlign=middle;whiteSpace=wrap;rounded=0;" parent="1" vertex="1">
          <mxGeometry x="140" y="630" width="20.04" height="20" as="geometry" />
        </mxCell>
        <mxCell id="PB9eRc3K2WVdu8bXLjVY-282" value="1" style="text;html=1;align=center;verticalAlign=middle;whiteSpace=wrap;rounded=0;" parent="1" vertex="1">
          <mxGeometry x="139.24" y="330" width="20.04" height="20" as="geometry" />
        </mxCell>
        <mxCell id="PB9eRc3K2WVdu8bXLjVY-283" value="1" style="text;html=1;align=center;verticalAlign=middle;whiteSpace=wrap;rounded=0;" parent="1" vertex="1">
          <mxGeometry x="179.69999999999993" y="340" width="20.04" height="20" as="geometry" />
        </mxCell>
        <mxCell id="PB9eRc3K2WVdu8bXLjVY-284" value="1" style="text;html=1;align=center;verticalAlign=middle;whiteSpace=wrap;rounded=0;" parent="1" vertex="1">
          <mxGeometry x="209.91999999999996" y="340" width="20.04" height="20" as="geometry" />
        </mxCell>
        <mxCell id="PB9eRc3K2WVdu8bXLjVY-285" value="1" style="text;html=1;align=center;verticalAlign=middle;whiteSpace=wrap;rounded=0;" parent="1" vertex="1">
          <mxGeometry x="260.04" y="330" width="20.04" height="20" as="geometry" />
        </mxCell>
        <mxCell id="PB9eRc3K2WVdu8bXLjVY-286" value="1" style="text;html=1;align=center;verticalAlign=middle;whiteSpace=wrap;rounded=0;" parent="1" vertex="1">
          <mxGeometry x="619.62" y="330" width="20.04" height="20" as="geometry" />
        </mxCell>
        <mxCell id="PB9eRc3K2WVdu8bXLjVY-287" value="1" style="text;html=1;align=center;verticalAlign=middle;whiteSpace=wrap;rounded=0;" parent="1" vertex="1">
          <mxGeometry x="660.0799999999999" y="340" width="20.04" height="20" as="geometry" />
        </mxCell>
        <mxCell id="PB9eRc3K2WVdu8bXLjVY-288" value="1" style="text;html=1;align=center;verticalAlign=middle;whiteSpace=wrap;rounded=0;" parent="1" vertex="1">
          <mxGeometry x="690.3" y="340" width="20.04" height="20" as="geometry" />
        </mxCell>
        <mxCell id="PB9eRc3K2WVdu8bXLjVY-289" value="1" style="text;html=1;align=center;verticalAlign=middle;whiteSpace=wrap;rounded=0;" parent="1" vertex="1">
          <mxGeometry x="740.42" y="330" width="20.04" height="20" as="geometry" />
        </mxCell>
        <mxCell id="PB9eRc3K2WVdu8bXLjVY-293" style="edgeStyle=orthogonalEdgeStyle;rounded=0;orthogonalLoop=1;jettySize=auto;html=1;exitX=1;exitY=0.5;exitDx=0;exitDy=0;endArrow=none;startFill=0;" parent="1" source="PB9eRc3K2WVdu8bXLjVY-294" edge="1">
          <mxGeometry relative="1" as="geometry">
            <mxPoint x="439" y="650.1304347826087" as="targetPoint" />
          </mxGeometry>
        </mxCell>
        <mxCell id="PB9eRc3K2WVdu8bXLjVY-294" value="Id" style="ellipse;whiteSpace=wrap;html=1;" parent="1" vertex="1">
          <mxGeometry x="379.76" y="640" width="40" height="20" as="geometry" />
        </mxCell>
        <mxCell id="PB9eRc3K2WVdu8bXLjVY-295" style="edgeStyle=orthogonalEdgeStyle;rounded=0;orthogonalLoop=1;jettySize=auto;html=1;exitX=0;exitY=0.5;exitDx=0;exitDy=0;endArrow=none;startFill=0;" parent="1" source="PB9eRc3K2WVdu8bXLjVY-296" edge="1">
          <mxGeometry relative="1" as="geometry">
            <mxPoint x="439.8" y="620.1304347826087" as="targetPoint" />
          </mxGeometry>
        </mxCell>
        <mxCell id="PB9eRc3K2WVdu8bXLjVY-296" value="len" style="ellipse;whiteSpace=wrap;html=1;" parent="1" vertex="1">
          <mxGeometry x="459.8" y="610" width="40" height="20" as="geometry" />
        </mxCell>
        <mxCell id="PB9eRc3K2WVdu8bXLjVY-301" style="edgeStyle=orthogonalEdgeStyle;rounded=0;orthogonalLoop=1;jettySize=auto;html=1;exitX=1;exitY=0.5;exitDx=0;exitDy=0;endArrow=none;startFill=0;" parent="1" source="PB9eRc3K2WVdu8bXLjVY-302" edge="1">
          <mxGeometry relative="1" as="geometry">
            <mxPoint x="439.76" y="620" as="targetPoint" />
          </mxGeometry>
        </mxCell>
        <mxCell id="PB9eRc3K2WVdu8bXLjVY-302" value="ver_id" style="ellipse;whiteSpace=wrap;html=1;" parent="1" vertex="1">
          <mxGeometry x="379.76" y="610" width="40" height="20" as="geometry" />
        </mxCell>
        <mxCell id="PB9eRc3K2WVdu8bXLjVY-304" style="edgeStyle=orthogonalEdgeStyle;rounded=0;orthogonalLoop=1;jettySize=auto;html=1;exitX=1;exitY=0.5;exitDx=0;exitDy=0;endArrow=none;startFill=0;" parent="1" source="PB9eRc3K2WVdu8bXLjVY-305" edge="1">
          <mxGeometry relative="1" as="geometry">
            <mxPoint x="679.62" y="750.1304347826087" as="targetPoint" />
          </mxGeometry>
        </mxCell>
        <mxCell id="PB9eRc3K2WVdu8bXLjVY-305" value="Id" style="ellipse;whiteSpace=wrap;html=1;" parent="1" vertex="1">
          <mxGeometry x="620.38" y="740" width="40" height="20" as="geometry" />
        </mxCell>
        <mxCell id="PB9eRc3K2WVdu8bXLjVY-306" style="edgeStyle=orthogonalEdgeStyle;rounded=0;orthogonalLoop=1;jettySize=auto;html=1;exitX=0;exitY=0.5;exitDx=0;exitDy=0;endArrow=none;startFill=0;" parent="1" source="PB9eRc3K2WVdu8bXLjVY-307" edge="1">
          <mxGeometry relative="1" as="geometry">
            <mxPoint x="680.42" y="720.1304347826087" as="targetPoint" />
          </mxGeometry>
        </mxCell>
        <mxCell id="PB9eRc3K2WVdu8bXLjVY-307" value="index" style="ellipse;whiteSpace=wrap;html=1;" parent="1" vertex="1">
          <mxGeometry x="700.42" y="710" width="40" height="20" as="geometry" />
        </mxCell>
        <mxCell id="PB9eRc3K2WVdu8bXLjVY-312" style="edgeStyle=orthogonalEdgeStyle;rounded=0;orthogonalLoop=1;jettySize=auto;html=1;exitX=1;exitY=0.5;exitDx=0;exitDy=0;endArrow=none;startFill=0;" parent="1" source="PB9eRc3K2WVdu8bXLjVY-313" edge="1">
          <mxGeometry relative="1" as="geometry">
            <mxPoint x="680.38" y="720" as="targetPoint" />
          </mxGeometry>
        </mxCell>
        <mxCell id="PB9eRc3K2WVdu8bXLjVY-313" value="ver_id" style="ellipse;whiteSpace=wrap;html=1;" parent="1" vertex="1">
          <mxGeometry x="620.38" y="710" width="40" height="20" as="geometry" />
        </mxCell>
        <mxCell id="PB9eRc3K2WVdu8bXLjVY-315" style="edgeStyle=orthogonalEdgeStyle;rounded=0;orthogonalLoop=1;jettySize=auto;html=1;exitX=1;exitY=0.5;exitDx=0;exitDy=0;endArrow=none;startFill=0;" parent="1" source="PB9eRc3K2WVdu8bXLjVY-314" edge="1">
          <mxGeometry relative="1" as="geometry">
            <mxPoint x="200" y="779.969696969697" as="targetPoint" />
          </mxGeometry>
        </mxCell>
        <mxCell id="PB9eRc3K2WVdu8bXLjVY-314" value="Id" style="ellipse;whiteSpace=wrap;html=1;" parent="1" vertex="1">
          <mxGeometry x="140.46" y="770" width="40" height="20" as="geometry" />
        </mxCell>
        <mxCell id="PB9eRc3K2WVdu8bXLjVY-319" style="edgeStyle=orthogonalEdgeStyle;rounded=0;orthogonalLoop=1;jettySize=auto;html=1;exitX=0;exitY=0.5;exitDx=0;exitDy=0;endArrow=none;startFill=0;" parent="1" source="PB9eRc3K2WVdu8bXLjVY-318" edge="1">
          <mxGeometry relative="1" as="geometry">
            <mxPoint x="680.0000000000001" y="230.0515463917526" as="targetPoint" />
          </mxGeometry>
        </mxCell>
        <mxCell id="PB9eRc3K2WVdu8bXLjVY-318" value="beg_sz" style="ellipse;whiteSpace=wrap;html=1;" parent="1" vertex="1">
          <mxGeometry x="700.42" y="220" width="40" height="20" as="geometry" />
        </mxCell>
      </root>
    </mxGraphModel>
  </diagram>
</mxfile>
